<svg xmlns="http://www.w3.org/2000/svg" viewBox="0 0 32 32" fill="none">
  <defs>
    <linearGradient id="bg" x1="4" y1="3" x2="28" y2="29" gradientUnits="userSpaceOnUse">
      <stop stop-color="#FF6B4A"/>
      <stop offset="0.45" stop-color="#F05138"/>
      <stop offset="1" stop-color="#007AFF"/>
    </linearGradient>
  </defs>
  <rect x="2" y="2" width="28" height="28" rx="8" fill="url(#bg)"/>
  <path d="M22 9.5C19.5 8.2 16 9 14 11.5C12.5 13.2 12 15.5 12.8 17.8C11 16.8 9.8 15 10 13C10.4 11 12 9.5 14.5 9.2C17.2 9 19.5 9.8 22 9.5Z" fill="white" fill-opacity="0.92"/>
  <path d="M10.5 20.5C12.8 22.2 16 22.8 18.2 21.2C19.8 20.2 20.8 18.2 20.8 16C19 17.2 17 17 15.8 15.8C14 14 13.5 11.5 14.5 9.5C12.2 10.8 10.5 13 10.4 15.2C10.3 16.5 10.6 18 10.5 20.5Z" fill="white"/>
</svg>
