<svg xmlns="http://www.w3.org/2000/svg" viewBox="0 0 24 24"><path fill="#181717" class="dark:fill-white" d="M12 2C6.48 2 2 6.58 2 12.26c0 4.52 2.87 8.35 6.84 9.7.5.1.68-.22.68-.49 0-.24-.01-.87-.01-1.7-2.78.62-3.37-1.34-3.37-1.34-.45-1.16-1.12-1.47-1.12-1.47-.92-.64.07-.63.07-.63 1.02.07 1.55 1.07 1.55 1.07.9 1.55 2.36 1.1 2.94.84.09-.66.35-1.1.63-1.36-2.22-.25-4.56-1.11-4.56-4.94 0-1.09.38-1.98 1.03-2.68-.1-.26-.45-1.3.1-2.7 0 0 .84-.28 2.75 1.05A9.4 9.4 0 0 1 12 6.84c.85.004 1.71.12 2.51.35 1.91-1.3 2.75-1.05 2.75-1.05.55 1.4.2 2.44.1 2.7.65.7 1.03 1.59 1.03 2.68 0 3.85-2.34 4.7-4.57 4.94.36.31.68.92.68 1.87 0 1.35-.01 2.44-.01 2.77 0 .28.18.6.69.5A10.04 10.04 0 0 0 22 12.26C22 6.58 17.52 2 12 2z"/></svg>
