<svg xmlns="http://www.w3.org/2000/svg" viewBox="0 0 64 64" fill="none">
  <defs>
    <linearGradient id="bg" x1="8" y1="6" x2="56" y2="58" gradientUnits="userSpaceOnUse">
      <stop stop-color="#FF6B4A"/>
      <stop offset="0.45" stop-color="#F05138"/>
      <stop offset="1" stop-color="#007AFF"/>
    </linearGradient>
  </defs>
  <rect x="4" y="4" width="56" height="56" rx="16" fill="url(#bg)"/>
  <path d="M44 18.5C38.5 16 31.5 17.5 27 22.5C23.5 26.2 22.5 31 24 35.5C20 33.5 17.5 29.5 18 24.5C18.8 19.2 23 15.5 28.5 15C34.5 14.5 40 16 44 18.5Z" fill="white" fill-opacity="0.92"/>
  <path d="M20 40.5C25 44.5 32.5 45.5 38.5 42C42.5 39.5 45 35.5 45 31C40.5 33.5 35.5 33 31.5 30C27 26.5 26 21.5 28.5 17.5C23.5 20.5 19.5 26 19 32.5C18.5 36 19 38.5 20 40.5Z" fill="white"/>
</svg>
